FrauncesItalic-LightOpMinGoofyMin.ufo
<glyph name="hyphen" format="2">
  <advance width="816"/>
  <unicode hex="002D"/>
  <outline>
    <contour>
      <point x="682" y="537" type="curve" smooth="yes"/>
      <point x="199" y="537" type="line" smooth="yes"/>
      <point x="182" y="537"/>
      <point x="176" y="534"/>
      <point x="168" y="522" type="curve" smooth="yes"/>
      <point x="144" y="484" type="line" smooth="yes"/>
      <point x="137" y="473"/>
      <point x="141" y="464"/>
      <point x="160" y="464" type="curve" smooth="yes"/>
      <point x="641" y="464" type="line" smooth="yes"/>
      <point x="658" y="464"/>
      <point x="666" y="468"/>
      <point x="673" y="479" type="curve" smooth="yes"/>
      <point x="697" y="519" type="line" smooth="yes"/>
      <point x="704" y="529"/>
      <point x="700" y="537"/>
    </contour>
  </outline>
</glyph>
<glyph name="three" format="2">
  <advance width="976"/>
  <unicode hex="0033"/>
  <outline>
    <contour>
      <point x="464" y="744" type="line"/>
      <point x="1111" y="1331" type="line" smooth="yes"/>
      <point x="1137" y="1352"/>
      <point x="1155" y="1365"/>
      <point x="1159" y="1380" type="curve" smooth="yes"/>
      <point x="1163" y="1392"/>
      <point x="1155" y="1400"/>
      <point x="1139" y="1400" type="curve" smooth="yes"/>
      <point x="454" y="1400" type="line" smooth="yes"/>
      <point x="417" y="1400"/>
      <point x="398" y="1385"/>
      <point x="385" y="1359" type="curve" smooth="yes"/>
      <point x="304" y="1168" type="line" smooth="yes"/>
      <point x="293" y="1146"/>
      <point x="299" y="1137"/>
      <point x="313" y="1136" type="curve" smooth="yes"/>
      <point x="325" y="1136"/>
      <point x="337" y="1144"/>
      <point x="345" y="1158" type="curve" smooth="yes"/>
      <point x="414" y="1283" type="line" smooth="yes"/>
      <point x="437" y="1318"/>
      <point x="456" y="1333"/>
      <point x="494" y="1333" type="curve" smooth="yes"/>
      <point x="1077" y="1333" type="line"/>
      <point x="1080" y="1353" type="line"/>
      <point x="460" y="789" type="line" smooth="yes"/>
      <point x="436" y="771"/>
      <point x="419" y="760"/>
      <point x="414" y="746" type="curve" smooth="yes"/>
      <point x="410" y="734"/>
      <point x="419" y="724"/>
      <point x="441" y="724" type="curve" smooth="yes"/>
      <point x="504" y="724" type="line" smooth="yes"/>
      <point x="781" y="724"/>
      <point x="864" y="601"/>
      <point x="802" y="360" type="curve" smooth="yes"/>
      <point x="745" y="148"/>
      <point x="566" y="22"/>
      <point x="375" y="22" type="curve" smooth="yes"/>
      <point x="189" y="21"/>
      <point x="107" y="96"/>
      <point x="141" y="226" type="curve" smooth="yes"/>
      <point x="162" y="299" type="line" smooth="yes"/>
      <point x="174" y="342"/>
      <point x="164" y="365"/>
      <point x="129" y="365" type="curve" smooth="yes"/>
      <point x="95" y="365"/>
      <point x="63" y="334"/>
      <point x="46" y="272" type="curve" smooth="yes"/>
      <point x="3" y="113"/>
      <point x="107" y="-20"/>
      <point x="348" y="-20" type="curve" smooth="yes"/>
      <point x="604" y="-20"/>
      <point x="823" y="143"/>
      <point x="888" y="383" type="curve" smooth="yes"/>
      <point x="952" y="628"/>
      <point x="836" y="767"/>
      <point x="538" y="767" type="curve" smooth="yes"/>
      <point x="533" y="767"/>
      <point x="488" y="767"/>
      <point x="481" y="767" type="curve"/>
    </contour>
  </outline>
</glyph>
<glyph name="five" format="2">
  <advance width="1042"/>
  <unicode hex="0035"/>
  <outline>
    <contour>
      <point x="105" y="281" type="curve" smooth="yes"/>
      <point x="61" y="118"/>
      <point x="176" y="-20"/>
      <point x="408" y="-20" type="curve" smooth="yes"/>
      <point x="663" y="-20"/>
      <point x="884" y="156"/>
      <point x="956" y="423" type="curve" smooth="yes"/>
      <point x="1022" y="666"/>
      <point x="922" y="841"/>
      <point x="684" y="841" type="curve" smooth="yes"/>
      <point x="541" y="841"/>
      <point x="386" y="756"/>
      <point x="277" y="622" type="curve"/>
      <point x="291" y="621" type="line"/>
      <point x="487" y="1365" type="line"/>
      <point x="477" y="1359" type="line"/>
      <point x="560" y="1270"/>
      <point x="677" y="1219"/>
      <point x="834" y="1219" type="curve" smooth="yes"/>
      <point x="988" y="1219"/>
      <point x="1129" y="1292"/>
      <point x="1199" y="1403" type="curve" smooth="yes"/>
      <point x="1217" y="1425"/>
      <point x="1213" y="1432"/>
      <point x="1206" y="1436" type="curve" smooth="yes"/>
      <point x="1195" y="1441"/>
      <point x="1181" y="1437"/>
      <point x="1159" y="1419" type="curve" smooth="yes"/>
      <point x="1087" y="1328"/>
      <point x="983" y="1284"/>
      <point x="854" y="1284" type="curve" smooth="yes"/>
      <point x="707" y="1284"/>
      <point x="633" y="1335"/>
      <point x="542" y="1413" type="curve" smooth="yes"/>
      <point x="527" y="1424"/>
      <point x="517" y="1428"/>
      <point x="502" y="1428" type="curve" smooth="yes"/>
      <point x="471" y="1428"/>
      <point x="451" y="1412"/>
      <point x="443" y="1389" type="curve" smooth="yes"/>
      <point x="232" y="593" type="line" smooth="yes"/>
      <point x="225" y="574"/>
      <point x="229" y="562"/>
      <point x="244" y="562" type="curve" smooth="yes"/>
      <point x="266" y="562"/>
      <point x="282" y="573"/>
      <point x="303" y="591" type="curve" smooth="yes"/>
      <point x="412" y="720"/>
      <point x="539" y="799"/>
      <point x="660" y="799" type="curve" smooth="yes"/>
      <point x="849" y="799"/>
      <point x="941" y="665"/>
      <point x="878" y="420" type="curve" smooth="yes"/>
      <point x="807" y="156"/>
      <point x="626" y="22"/>
      <point x="436" y="22" type="curve" smooth="yes"/>
      <point x="243" y="22"/>
      <point x="168" y="104"/>
      <point x="200" y="230" type="curve" smooth="yes"/>
      <point x="219" y="300" type="line" smooth="yes"/>
      <point x="231" y="342"/>
      <point x="221" y="366"/>
      <point x="187" y="366" type="curve" smooth="yes"/>
      <point x="152" y="366"/>
      <point x="120" y="333"/>
    </contour>
  </outline>
</glyph>
<glyph name="Z" format="2">
  <advance width="1117"/>
  <unicode hex="005A"/>
  <anchor x="885" y="1504" name="center"/>
  <outline>
    <contour>
      <point x="705" y="0" type="line" smooth="yes"/>
      <point x="732" y="0"/>
      <point x="758" y="-23"/>
      <point x="784" y="-23" type="curve" smooth="yes"/>
      <point x="874" y="-23"/>
      <point x="1006" y="141"/>
      <point x="1005" y="284" type="curve" smooth="yes"/>
      <point x="1005" y="295"/>
      <point x="999" y="303"/>
      <point x="988" y="303" type="curve" smooth="yes"/>
      <point x="976" y="303"/>
      <point x="969" y="295"/>
      <point x="962" y="280" type="curve" smooth="yes"/>
      <point x="896" y="84"/>
      <point x="793" y="35"/>
      <point x="677" y="35" type="curve" smooth="yes"/>
      <point x="93" y="35" type="line"/>
      <point x="105" y="23" type="line"/>
      <point x="286" y="209"/>
      <point x="1126" y="1242"/>
      <point x="1237" y="1347" type="curve" smooth="yes"/>
      <point x="1254" y="1363"/>
      <point x="1263" y="1373"/>
      <point x="1263" y="1381" type="curve" smooth="yes"/>
      <point x="1263" y="1393"/>
      <point x="1256" y="1399"/>
      <point x="1232" y="1399" type="curve" smooth="yes"/>
      <point x="659" y="1399" type="line" smooth="yes"/>
      <point x="601" y="1399"/>
      <point x="587" y="1429"/>
      <point x="545" y="1429" type="curve" smooth="yes"/>
      <point x="530" y="1429"/>
      <point x="514" y="1418"/>
      <point x="496" y="1396" type="curve" smooth="yes"/>
      <point x="369" y="1220" type="line" smooth="yes"/>
      <point x="347" y="1196"/>
      <point x="345" y="1181"/>
      <point x="362" y="1175" type="curve" smooth="yes"/>
      <point x="375" y="1170"/>
      <point x="396" y="1179"/>
      <point x="413" y="1196" type="curve" smooth="yes"/>
      <point x="511" y="1319"/>
      <point x="582" y="1365"/>
      <point x="643" y="1365" type="curve" smooth="yes"/>
      <point x="1192" y="1365" type="line"/>
      <point x="1176" y="1377" type="line"/>
      <point x="1011" y="1220"/>
      <point x="213" y="219"/>
      <point x="35" y="55" type="curve" smooth="yes"/>
      <point x="21" y="42"/>
      <point x="13" y="32"/>
      <point x="13" y="18" type="curve" smooth="yes"/>
      <point x="13" y="6"/>
      <point x="24" y="0"/>
      <point x="48" y="0" type="curve" smooth="yes"/>
    </contour>
  </outline>
</glyph>
<glyph name="l" format="2">
  <advance width="549"/>
  <unicode hex="006C"/>
  <anchor x="173" y="1593" name="center"/>
  <outline>
    <contour>
      <point x="719" y="1434" type="curve" smooth="yes"/>
      <point x="577.5951557093426" y="1434.0"/>
      <point x="480.94563646366186" y="1353.3224374067042"/>
      <point x="425" y="1174" type="curve" smooth="yes"/>
      <point x="123" y="206" type="line" smooth="yes"/>
      <point x="71" y="40"/>
      <point x="102" y="-15"/>
      <point x="189" y="-15" type="curve" smooth="yes"/>
      <point x="298" y="-15"/>
      <point x="421" y="59"/>
      <point x="440" y="133" type="curve" smooth="yes"/>
      <point x="444" y="148"/>
      <point x="438" y="157"/>
      <point x="428" y="157" type="curve" smooth="yes"/>
      <point x="420" y="157"/>
      <point x="414" y="152"/>
      <point x="407" y="142" type="curve" smooth="yes"/>
      <point x="360.0178462331784" y="78.31308044941954"/>
      <point x="290" y="43"/>
      <point x="231" y="43" type="curve" smooth="yes"/>
      <point x="171" y="43"/>
      <point x="152" y="78"/>
      <point x="198" y="227" type="curve" smooth="yes"/>
      <point x="455" y="1053" type="line" smooth="yes"/>
      <point x="473" y="1110"/>
      <point x="480" y="1150"/>
      <point x="488" y="1211" type="curve" smooth="yes"/>
      <point x="499" y="1296"/>
      <point x="561" y="1370"/>
      <point x="632" y="1370" type="curve" smooth="yes"/>
      <point x="691.2440944881889" y="1370.0"/>
      <point x="717.2283464566929" y="1330.0"/>
      <point x="764" y="1330" type="curve" smooth="yes"/>
      <point x="804.5079365079365" y="1330.0"/>
      <point x="822.0" y="1350.8301886792453"/>
      <point x="822" y="1378" type="curve" smooth="yes"/>
      <point x="822.0" y="1407.6470588235295"/>
      <point x="790.5277777777778" y="1434.0"/>
    </contour>
  </outline>
</glyph>
<glyph name="braceleft" format="2">
  <advance width="733"/>
  <unicode hex="007B"/>
  <outline>
    <contour>
      <point x="364" y="631" type="curve" smooth="yes"/>
      <point x="368" y="644"/>
      <point x="377" y="650"/>
      <point x="392" y="650" type="curve" smooth="yes"/>
      <point x="517" y="650"/>
      <point x="590" y="706"/>
      <point x="613" y="787" type="curve" smooth="yes"/>
      <point x="655" y="943"/>
      <point x="458" y="1078"/>
      <point x="507" y="1262" type="curve" smooth="yes"/>
      <point x="541" y="1390"/>
      <point x="646" y="1469"/>
      <point x="802" y="1469" type="curve" smooth="yes"/>
      <point x="899" y="1469" type="line" smooth="yes"/>
      <point x="914" y="1469"/>
      <point x="926" y="1476"/>
      <point x="930" y="1490" type="curve" smooth="yes"/>
      <point x="935" y="1505"/>
      <point x="927" y="1512"/>
      <point x="912" y="1512" type="curve" smooth="yes"/>
      <point x="812" y="1512" type="line" smooth="yes"/>
      <point x="602" y="1512"/>
      <point x="472" y="1408"/>
      <point x="433" y="1261" type="curve" smooth="yes"/>
      <point x="379" y="1059"/>
      <point x="582" y="910"/>
      <point x="549" y="782" type="curve" smooth="yes"/>
      <point x="533" y="721"/>
      <point x="483" y="680"/>
      <point x="408" y="680" type="curve" smooth="yes"/>
      <point x="365" y="680"/>
      <point x="347" y="698"/>
      <point x="299" y="698" type="curve" smooth="yes"/>
      <point x="251" y="698"/>
      <point x="215" y="664"/>
      <point x="206" y="631" type="curve" smooth="yes"/>
      <point x="197" y="598"/>
      <point x="214" y="564"/>
      <point x="262" y="564" type="curve" smooth="yes"/>
      <point x="309" y="564"/>
      <point x="337" y="581"/>
      <point x="380" y="581" type="curve" smooth="yes"/>
      <point x="455" y="581"/>
      <point x="482" y="540"/>
      <point x="466" y="479" type="curve" smooth="yes"/>
      <point x="432" y="351"/>
      <point x="144" y="201"/>
      <point x="91" y="0" type="curve" smooth="yes"/>
      <point x="52" y="-147"/>
      <point x="127" y="-251"/>
      <point x="338" y="-251" type="curve" smooth="yes"/>
      <point x="438" y="-251" type="line" smooth="yes"/>
      <point x="452" y="-251"/>
      <point x="465" y="-244"/>
      <point x="469" y="-230" type="curve" smooth="yes"/>
      <point x="473" y="-216"/>
      <point x="466" y="-209"/>
      <point x="451" y="-209" type="curve" smooth="yes"/>
      <point x="354" y="-209" type="line" smooth="yes"/>
      <point x="198" y="-209"/>
      <point x="132" y="-129"/>
      <point x="165" y="-1" type="curve" smooth="yes"/>
      <point x="213" y="182"/>
      <point x="485" y="317"/>
      <point x="528" y="474" type="curve" smooth="yes"/>
      <point x="550" y="554"/>
      <point x="507" y="611"/>
      <point x="382" y="611" type="curve" smooth="yes"/>
      <point x="367" y="611"/>
      <point x="360" y="617"/>
    </contour>
  </outline>
</glyph>
<glyph name="yen" format="2">
  <advance width="1127"/>
  <unicode hex="00A5"/>
  <outline>
    <contour>
      <point x="592" y="483" type="line"/>
      <point x="612" y="478" type="line"/>
      <point x="580" y="622"/>
      <point x="491" y="1186"/>
      <point x="465" y="1300" type="curve" smooth="yes"/>
      <point x="447" y="1371"/>
      <point x="412" y="1400"/>
      <point x="335" y="1400" type="curve" smooth="yes"/>
      <point x="267" y="1400" type="line" smooth="yes"/>
      <point x="248" y="1400"/>
      <point x="233" y="1392"/>
      <point x="234" y="1382" type="curve" smooth="yes"/>
      <point x="235" y="1370"/>
      <point x="249" y="1361"/>
      <point x="280" y="1359" type="curve" smooth="yes"/>
      <point x="346" y="1354"/>
      <point x="387" y="1326"/>
      <point x="398" y="1273" type="curve" smooth="yes"/>
      <point x="419" y="1169"/>
      <point x="510" y="620"/>
      <point x="535" y="504" type="curve" smooth="yes"/>
      <point x="541" y="472"/>
      <point x="539" y="446"/>
      <point x="529" y="414" type="curve" smooth="yes"/>
      <point x="454" y="134" type="line" smooth="yes"/>
      <point x="438" y="82"/>
      <point x="404" y="52"/>
      <point x="351" y="46" type="curve" smooth="yes"/>
      <point x="286" y="38" type="line" smooth="yes"/>
      <point x="261" y="35"/>
      <point x="246" y="28"/>
      <point x="246" y="17" type="curve" smooth="yes"/>
      <point x="246" y="6"/>
      <point x="255" y="0"/>
      <point x="273" y="0" type="curve" smooth="yes"/>
      <point x="625" y="0" type="line" smooth="yes"/>
      <point x="654" y="0"/>
      <point x="667" y="6"/>
      <point x="667" y="17" type="curve" smooth="yes"/>
      <point x="667" y="28"/>
      <point x="658" y="34"/>
      <point x="633" y="38" type="curve" smooth="yes"/>
      <point x="569" y="47" type="line" smooth="yes"/>
      <point x="526" y="54"/>
      <point x="519" y="84"/>
      <point x="531" y="128" type="curve" smooth="yes"/>
      <point x="606" y="418" type="line" smooth="yes"/>
      <point x="614" y="444"/>
      <point x="624" y="462"/>
      <point x="649" y="493" type="curve" smooth="yes"/>
      <point x="1053" y="1149" type="line" smooth="yes"/>
      <point x="1142" y="1270"/>
      <point x="1216" y="1312"/>
      <point x="1274" y="1319" type="curve" smooth="yes"/>
      <point x="1346" y="1328"/>
      <point x="1375" y="1349"/>
      <point x="1375" y="1384" type="curve" smooth="yes"/>
      <point x="1375" y="1403"/>
      <point x="1355" y="1422"/>
      <point x="1308" y="1422" type="curve" smooth="yes"/>
      <point x="1223" y="1422"/>
      <point x="1149" y="1364"/>
      <point x="1024" y="1183" type="curve" smooth="yes"/>
    </contour>
    <contour>
      <point x="110" y="483" type="curve" smooth="yes"/>
      <point x="106" y="471"/>
      <point x="113" y="464"/>
      <point x="129" y="464" type="curve" smooth="yes"/>
      <point x="1014" y="464" type="line" smooth="yes"/>
      <point x="1032" y="464"/>
      <point x="1047" y="471"/>
      <point x="1051" y="484" type="curve" smooth="yes"/>
      <point x="1055" y="494"/>
      <point x="1045" y="502"/>
      <point x="1027" y="502" type="curve" smooth="yes"/>
      <point x="144" y="502" type="line" smooth="yes"/>
      <point x="128" y="502"/>
      <point x="113" y="494"/>
    </contour>
    <contour>
      <point x="178" y="757" type="curve" smooth="yes"/>
      <point x="174" y="745"/>
      <point x="180" y="738"/>
      <point x="197" y="738" type="curve" smooth="yes"/>
      <point x="531" y="738" type="line"/>
      <point x="518" y="777" type="line"/>
      <point x="212" y="777" type="line" smooth="yes"/>
      <point x="196" y="777"/>
      <point x="181" y="768"/>
    </contour>
    <contour>
      <point x="764" y="738" type="line"/>
      <point x="1082" y="738" type="line" smooth="yes"/>
      <point x="1100" y="738"/>
      <point x="1115" y="745"/>
      <point x="1119" y="757" type="curve" smooth="yes"/>
      <point x="1123" y="768"/>
      <point x="1113" y="777"/>
      <point x="1095" y="777" type="curve" smooth="yes"/>
      <point x="796" y="777" type="line"/>
    </contour>
  </outline>
</glyph>
<glyph name="paragraph" format="2">
  <advance width="1069"/>
  <unicode hex="00B6"/>
  <outline>
    <contour>
      <point x="246" y="1047" type="curve" smooth="yes"/>
      <point x="194" y="853"/>
      <point x="281" y="740"/>
      <point x="475" y="740" type="curve" smooth="yes"/>
      <point x="515" y="740"/>
      <point x="541" y="750"/>
      <point x="558" y="754" type="curve"/>
      <point x="389" y="108" type="line" smooth="yes"/>
      <point x="379" y="76"/>
      <point x="345" y="54"/>
      <point x="304" y="48" type="curve" smooth="yes"/>
      <point x="232" y="35" type="line" smooth="yes"/>
      <point x="203" y="30"/>
      <point x="192" y="26"/>
      <point x="190" y="17" type="curve" smooth="yes"/>
      <point x="186" y="6"/>
      <point x="194" y="0"/>
      <point x="213" y="0" type="curve" smooth="yes"/>
      <point x="803" y="0" type="line" smooth="yes"/>
      <point x="820" y="0"/>
      <point x="836" y="4"/>
      <point x="840" y="17" type="curve" smooth="yes"/>
      <point x="844" y="28"/>
      <point x="833" y="32"/>
      <point x="808" y="36" type="curve" smooth="yes"/>
      <point x="744" y="49" type="line" smooth="yes"/>
      <point x="706" y="55"/>
      <point x="689" y="71"/>
      <point x="701" y="109" type="curve" smooth="yes"/>
      <point x="1012" y="1294" type="line" smooth="yes"/>
      <point x="1021" y="1327"/>
      <point x="1050" y="1345"/>
      <point x="1094" y="1352" type="curve" smooth="yes"/>
      <point x="1170" y="1366" type="line" smooth="yes"/>
      <point x="1195" y="1370"/>
      <point x="1205" y="1374"/>
      <point x="1208" y="1385" type="curve" smooth="yes"/>
      <point x="1211" y="1395"/>
      <point x="1205" y="1400"/>
      <point x="1187" y="1400" type="curve" smooth="yes"/>
      <point x="779" y="1400" type="line" smooth="yes"/>
      <point x="498" y="1400"/>
      <point x="304" y="1262"/>
    </contour>
    <contour>
      <point x="631" y="100" type="line" smooth="yes"/>
      <point x="621" y="67"/>
      <point x="591" y="42"/>
      <point x="525" y="42" type="curve" smooth="yes"/>
      <point x="458" y="42"/>
      <point x="443" y="71"/>
      <point x="452" y="100" type="curve" smooth="yes"/>
      <point x="768" y="1300" type="line" smooth="yes"/>
      <point x="778" y="1330"/>
      <point x="812" y="1360"/>
      <point x="878" y="1360" type="curve" smooth="yes"/>
      <point x="943" y="1360"/>
      <point x="957" y="1334"/>
      <point x="946" y="1300" type="curve" smooth="yes"/>
    </contour>
  </outline>
</glyph>
<glyph name="germandbls" format="2">
  <advance width="1067"/>
  <unicode hex="00DF"/>
  <outline>
    <contour>
      <point x="9" y="-232" type="line" smooth="yes"/>
      <point x="-17" y="-319"/>
      <point x="-5" y="-353"/>
      <point x="38" y="-353" type="curve" smooth="yes"/>
      <point x="73" y="-353"/>
      <point x="104" y="-332"/>
      <point x="104" y="-302" type="curve" smooth="yes"/>
      <point x="104" y="-276"/>
      <point x="86" y="-260"/>
      <point x="86" y="-226" type="curve" smooth="yes"/>
      <point x="86" y="-197"/>
      <point x="91" y="-167"/>
      <point x="102" y="-129" type="curve" smooth="yes"/>
      <point x="419" y="1022" type="line" smooth="yes"/>
      <point x="497" y="1301"/>
      <point x="644" y="1426"/>
      <point x="830" y="1426" type="curve" smooth="yes"/>
      <point x="971" y="1426"/>
      <point x="1050" y="1295"/>
      <point x="1006" y="1131" type="curve" smooth="yes"/>
      <point x="955" y="930"/>
      <point x="827" y="818"/>
      <point x="549" y="786" type="curve" smooth="yes"/>
      <point x="531" y="784"/>
      <point x="523" y="776"/>
      <point x="521" y="765" type="curve" smooth="yes"/>
      <point x="518" y="752"/>
      <point x="531" y="744"/>
      <point x="560" y="743" type="curve" smooth="yes"/>
      <point x="828" y="736"/>
      <point x="960" y="565"/>
      <point x="894" y="318" type="curve" smooth="yes"/>
      <point x="844" y="125"/>
      <point x="719" y="20"/>
      <point x="562" y="20" type="curve" smooth="yes"/>
      <point x="441" y="20"/>
      <point x="368" y="93"/>
      <point x="371" y="211" type="curve" smooth="yes"/>
      <point x="372" y="262" type="line" smooth="yes"/>
      <point x="372" y="275"/>
      <point x="369" y="282"/>
      <point x="357" y="282" type="curve" smooth="yes"/>
      <point x="347" y="282"/>
      <point x="337" y="275"/>
      <point x="322" y="210" type="curve" smooth="yes"/>
      <point x="286" y="66"/>
      <point x="359" y="-21"/>
      <point x="545" y="-21" type="curve" smooth="yes"/>
      <point x="747" y="-21"/>
      <point x="909" y="108"/>
      <point x="959" y="303" type="curve" smooth="yes"/>
      <point x="1028" y="564"/>
      <point x="866" y="782"/>
      <point x="579" y="780" type="curve"/>
      <point x="576" y="766" type="line"/>
      <point x="832" y="780"/>
      <point x="1019" y="921"/>
      <point x="1071" y="1113" type="curve" smooth="yes"/>
      <point x="1122" y="1308"/>
      <point x="1031" y="1466"/>
      <point x="844" y="1466" type="curve" smooth="yes"/>
      <point x="619" y="1466"/>
      <point x="436" y="1315"/>
      <point x="359" y="1042" type="curve" smooth="yes"/>
      <point x="319" y="878" type="line"/>
      <point x="349" y="907" type="line"/>
      <point x="185" y="907" type="line" smooth="yes"/>
      <point x="173" y="907"/>
      <point x="164" y="900"/>
      <point x="162" y="891" type="curve" smooth="yes"/>
      <point x="158" y="881"/>
      <point x="174" y="875"/>
      <point x="201" y="868" type="curve" smooth="yes"/>
      <point x="253" y="856" type="line" smooth="yes"/>
      <point x="296" y="845"/>
      <point x="304" y="822"/>
      <point x="293" y="788" type="curve" smooth="yes"/>
    </contour>
  </outline>
</glyph>
<glyph name="lslash" format="2">
  <advance width="538"/>
  <unicode hex="0142"/>
  <outline>
    <contour>
      <point x="65" y="555" type="curve" smooth="yes"/>
      <point x="71" y="544"/>
      <point x="82" y="543"/>
      <point x="97" y="550" type="curve" smooth="yes"/>
      <point x="289" y="703" type="line"/>
      <point x="332" y="730" type="line"/>
      <point x="611" y="926" type="line" smooth="yes"/>
      <point x="624" y="934"/>
      <point x="631" y="945"/>
      <point x="625" y="955" type="curve" smooth="yes"/>
      <point x="619" y="969"/>
      <point x="607" y="969"/>
      <point x="594" y="961" type="curve" smooth="yes"/>
      <point x="346" y="782" type="line"/>
      <point x="305" y="756" type="line"/>
      <point x="78" y="585" type="line" smooth="yes"/>
      <point x="65" y="578"/>
      <point x="59" y="566"/>
    </contour>
    <component base="l" xOffset="7"/>
  </outline>
</glyph>
<glyph name="tbar" format="2">
  <advance width="620"/>
  <unicode hex="0167"/>
  <outline>
    <contour>
      <point x="95" y="511" type="curve" smooth="yes"/>
      <point x="90" y="500"/>
      <point x="96" y="493"/>
      <point x="111" y="493" type="curve" smooth="yes"/>
      <point x="530" y="493" type="line" smooth="yes"/>
      <point x="544" y="493"/>
      <point x="555" y="500"/>
      <point x="559" y="511" type="curve" smooth="yes"/>
      <point x="563" y="523"/>
      <point x="557" y="531"/>
      <point x="543" y="531" type="curve" smooth="yes"/>
      <point x="122" y="531" type="line" smooth="yes"/>
      <point x="110" y="531"/>
      <point x="99" y="523"/>
    </contour>
    <contour>
      <point x="306" y="849" type="line" smooth="yes"/>
      <point x="335" y="844"/>
      <point x="332" y="825"/>
      <point x="315" y="773" type="curve" smooth="yes"/>
      <point x="141" y="182" type="line" smooth="yes"/>
      <point x="102" y="54"/>
      <point x="122" y="-15"/>
      <point x="225" y="-15" type="curve" smooth="yes"/>
      <point x="343" y="-15"/>
      <point x="486" y="73"/>
      <point x="507" y="156" type="curve" smooth="yes"/>
      <point x="508" y="165"/>
      <point x="504" y="171"/>
      <point x="494" y="172" type="curve" smooth="yes"/>
      <point x="485" y="173"/>
      <point x="481" y="171"/>
      <point x="469" y="158" type="curve" smooth="yes"/>
      <point x="402" y="81"/>
      <point x="343" y="47"/>
      <point x="272" y="47" type="curve" smooth="yes"/>
      <point x="202" y="47"/>
      <point x="175" y="84"/>
      <point x="225" y="242" type="curve" smooth="yes"/>
      <point x="461" y="1012" type="line" smooth="yes"/>
      <point x="468" y="1031"/>
      <point x="473" y="1044"/>
      <point x="473" y="1054" type="curve" smooth="yes"/>
      <point x="473" y="1068"/>
      <point x="468" y="1073"/>
      <point x="456" y="1073" type="curve" smooth="yes"/>
      <point x="446" y="1073"/>
      <point x="438" y="1069"/>
      <point x="429" y="1055" type="curve" smooth="yes"/>
      <point x="348" y="922" type="line" smooth="yes"/>
      <point x="340" y="911"/>
      <point x="332" y="906"/>
      <point x="314" y="906" type="curve" smooth="yes"/>
      <point x="207" y="906" type="line" smooth="yes"/>
      <point x="194" y="906"/>
      <point x="180" y="897"/>
      <point x="180" y="888" type="curve" smooth="yes"/>
      <point x="180" y="877"/>
      <point x="189" y="870"/>
      <point x="204" y="868" type="curve" smooth="yes"/>
    </contour>
    <contour>
      <point x="347" y="866" type="line"/>
      <point x="644" y="866" type="line" smooth="yes"/>
      <point x="673" y="866"/>
      <point x="691" y="874"/>
      <point x="691" y="890" type="curve" smooth="yes"/>
      <point x="691" y="899"/>
      <point x="683" y="906"/>
      <point x="669" y="906" type="curve" smooth="yes"/>
      <point x="361" y="906" type="line"/>
    </contour>
  </outline>
</glyph>
<glyph name="oogonek" format="2">
  <advance width="939"/>
  <unicode hex="01EB"/>
  <outline>
    <contour>
      <point x="576" y="921" type="curve" smooth="yes"/>
      <point x="306" y="921"/>
      <point x="81" y="621"/>
      <point x="81" y="313" type="curve" smooth="yes"/>
      <point x="81" y="106"/>
      <point x="197" y="-16"/>
      <point x="364" y="-16" type="curve" smooth="yes"/>
      <point x="380" y="-16"/>
      <point x="396" y="-16"/>
      <point x="438" y="-11" type="curve"/>
      <point x="435" y="2" type="line"/>
      <point x="285" y="-87"/>
      <point x="214" y="-196"/>
      <point x="214" y="-291" type="curve" smooth="yes"/>
      <point x="214" y="-369"/>
      <point x="267" y="-417"/>
      <point x="357" y="-417" type="curve" smooth="yes"/>
      <point x="442" y="-417"/>
      <point x="513" y="-364"/>
      <point x="533" y="-316" type="curve" smooth="yes"/>
      <point x="537" y="-305"/>
      <point x="531" y="-300"/>
      <point x="524" y="-300" type="curve" smooth="yes"/>
      <point x="517" y="-299"/>
      <point x="512" y="-302"/>
      <point x="504" y="-312" type="curve" smooth="yes"/>
      <point x="472" y="-354"/>
      <point x="418" y="-378"/>
      <point x="372" y="-378" type="curve" smooth="yes"/>
      <point x="318" y="-378"/>
      <point x="283" y="-344"/>
      <point x="283" y="-281" type="curve" smooth="yes"/>
      <point x="283" y="-181"/>
      <point x="375" y="-60"/>
      <point x="522" y="15" type="curve" smooth="yes"/>
      <point x="715" y="113"/>
      <point x="857" y="327"/>
      <point x="857" y="591" type="curve" smooth="yes"/>
      <point x="857" y="801"/>
      <point x="744" y="921"/>
    </contour>
    <contour>
      <point x="383" y="23" type="curve" smooth="yes"/>
      <point x="249" y="23"/>
      <point x="150" y="100"/>
      <point x="150" y="302" type="curve" smooth="yes"/>
      <point x="150" y="585"/>
      <point x="334" y="882"/>
      <point x="570" y="882" type="curve" smooth="yes"/>
      <point x="686" y="882"/>
      <point x="788" y="802"/>
      <point x="788" y="602" type="curve" smooth="yes"/>
      <point x="788" y="307"/>
      <point x="589" y="23"/>
    </contour>
  </outline>
</glyph>
<glyph name="tildecmb" format="2">
  <advance width="577"/>
  <unicode hex="0303"/>
  <anchor x="322" y="995" name="center"/>
  <outline>
    <contour>
      <point x="404" y="1051" type="curve" smooth="yes"/>
      <point x="476" y="1051"/>
      <point x="533" y="1102"/>
      <point x="560" y="1209" type="curve" smooth="yes"/>
      <point x="565" y="1228"/>
      <point x="559" y="1233"/>
      <point x="549" y="1233" type="curve" smooth="yes"/>
      <point x="535" y="1233"/>
      <point x="526" y="1224"/>
      <point x="522" y="1209" type="curve" smooth="yes"/>
      <point x="506" y="1148"/>
      <point x="477" y="1115"/>
      <point x="435" y="1115" type="curve" smooth="yes"/>
      <point x="355" y="1115"/>
      <point x="328" y="1230"/>
      <point x="223" y="1230" type="curve" smooth="yes"/>
      <point x="150" y="1230"/>
      <point x="94" y="1179"/>
      <point x="66" y="1073" type="curve" smooth="yes"/>
      <point x="61" y="1054"/>
      <point x="68" y="1049"/>
      <point x="78" y="1049" type="curve" smooth="yes"/>
      <point x="90" y="1049"/>
      <point x="101" y="1058"/>
      <point x="104" y="1073" type="curve" smooth="yes"/>
      <point x="120" y="1134"/>
      <point x="150" y="1166"/>
      <point x="192" y="1166" type="curve" smooth="yes"/>
      <point x="270" y="1166"/>
      <point x="299" y="1051"/>
    </contour>
  </outline>
</glyph>
<glyph name="dotaccentcmb" format="2">
  <advance width="246"/>
  <unicode hex="0307"/>
  <anchor x="127" y="958" name="center"/>
  <outline>
    <contour>
      <point x="123" y="1069" type="curve" smooth="yes"/>
      <point x="162" y="1069"/>
      <point x="197" y="1102"/>
      <point x="207" y="1141" type="curve" smooth="yes"/>
      <point x="217" y="1181"/>
      <point x="200" y="1213"/>
      <point x="162" y="1213" type="curve" smooth="yes"/>
      <point x="123" y="1213"/>
      <point x="88" y="1181"/>
      <point x="78" y="1141" type="curve" smooth="yes"/>
      <point x="68" y="1102"/>
      <point x="85" y="1069"/>
    </contour>
  </outline>
</glyph>
<glyph name="ogonekcmb" format="2">
  <advance width="446"/>
  <unicode hex="0328"/>
  <outline>
    <contour>
      <point x="414" y="23" type="line"/>
      <point x="238" y="-44"/>
      <point x="130" y="-145"/>
      <point x="101" y="-256" type="curve" smooth="yes"/>
      <point x="75" y="-353"/>
      <point x="129" y="-417"/>
      <point x="235" y="-417" type="curve" smooth="yes"/>
      <point x="321" y="-417"/>
      <point x="394" y="-364"/>
      <point x="414" y="-316" type="curve" smooth="yes"/>
      <point x="418" y="-305"/>
      <point x="413" y="-300"/>
      <point x="407" y="-300" type="curve" smooth="yes"/>
      <point x="399" y="-299"/>
      <point x="393" y="-302"/>
      <point x="385" y="-312" type="curve" smooth="yes"/>
      <point x="353" y="-354"/>
      <point x="300" y="-378"/>
      <point x="253" y="-378" type="curve" smooth="yes"/>
      <point x="185" y="-378"/>
      <point x="148" y="-334"/>
      <point x="169" y="-251" type="curve" smooth="yes"/>
      <point x="196" y="-147"/>
      <point x="278" y="-70"/>
      <point x="423" y="-4" type="curve"/>
    </contour>
  </outline>
</glyph>
<glyph name="Germandbls" format="2">
  <advance width="1342"/>
  <unicode hex="1E9E"/>
  <outline>
    <contour>
      <point x="1449" y="1400" type="curve" smooth="yes"/>
      <point x="422" y="1400" type="line" smooth="yes"/>
      <point x="403" y="1400"/>
      <point x="390" y="1394"/>
      <point x="387" y="1385" type="curve" smooth="yes"/>
      <point x="384" y="1377"/>
      <point x="389" y="1370"/>
      <point x="409" y="1366" type="curve" smooth="yes"/>
      <point x="483" y="1351" type="line" smooth="yes"/>
      <point x="525" y="1343"/>
      <point x="537" y="1327"/>
      <point x="524" y="1284" type="curve" smooth="yes"/>
      <point x="218" y="110" type="line" smooth="yes"/>
      <point x="208" y="77"/>
      <point x="181" y="56"/>
      <point x="141" y="50" type="curve" smooth="yes"/>
      <point x="60" y="35" type="line" smooth="yes"/>
      <point x="30" y="30"/>
      <point x="20" y="25"/>
      <point x="17" y="14" type="curve" smooth="yes"/>
      <point x="14" y="5"/>
      <point x="23" y="0"/>
      <point x="40" y="0" type="curve" smooth="yes"/>
      <point x="211" y="0" type="line" smooth="yes"/>
      <point x="238" y="0"/>
      <point x="264" y="15"/>
      <point x="271" y="38" type="curve" smooth="yes"/>
      <point x="609" y="1314" type="line" smooth="yes"/>
      <point x="618" y="1344"/>
      <point x="638" y="1360"/>
      <point x="670" y="1360" type="curve" smooth="yes"/>
      <point x="1316" y="1360" type="line" smooth="yes"/>
      <point x="1331" y="1360"/>
      <point x="1338" y="1355"/>
      <point x="1334" y="1344" type="curve" smooth="yes"/>
      <point x="1332" y="1336"/>
      <point x="1327" y="1327"/>
      <point x="1310" y="1316" type="curve" smooth="yes"/>
      <point x="721" y="779" type="line" smooth="yes"/>
      <point x="708" y="768"/>
      <point x="703" y="763"/>
      <point x="700" y="753" type="curve" smooth="yes"/>
      <point x="696" y="741"/>
      <point x="703" y="733"/>
      <point x="725" y="733" type="curve" smooth="yes"/>
      <point x="824" y="733" type="line" smooth="yes"/>
      <point x="1103" y="733"/>
      <point x="1227" y="585"/>
      <point x="1162" y="342" type="curve" smooth="yes"/>
      <point x="1102" y="116"/>
      <point x="945" y="18"/>
      <point x="764" y="18" type="curve" smooth="yes"/>
      <point x="611" y="18"/>
      <point x="527" y="75"/>
      <point x="534" y="220" type="curve" smooth="yes"/>
      <point x="536" y="285" type="line" smooth="yes"/>
      <point x="537" y="301"/>
      <point x="532" y="307"/>
      <point x="516" y="307" type="curve" smooth="yes"/>
      <point x="502" y="307"/>
      <point x="493" y="299"/>
      <point x="488" y="284" type="curve" smooth="yes"/>
      <point x="417" y="8" type="line" smooth="yes"/>
      <point x="412" y="-6"/>
      <point x="420" y="-18"/>
      <point x="438" y="-18" type="curve" smooth="yes"/>
      <point x="460" y="-18"/>
      <point x="499" y="60"/>
      <point x="516" y="60" type="curve" smooth="yes"/>
      <point x="536" y="60"/>
      <point x="583" y="-20"/>
      <point x="758" y="-20" type="curve" smooth="yes"/>
      <point x="988" y="-20"/>
      <point x="1181" y="111"/>
      <point x="1240" y="329" type="curve" smooth="yes"/>
      <point x="1312" y="590"/>
      <point x="1172" y="769"/>
      <point x="865" y="769" type="curve" smooth="yes"/>
      <point x="838" y="769"/>
      <point x="796" y="770"/>
      <point x="775" y="770" type="curve"/>
      <point x="774" y="750" type="line"/>
      <point x="1432" y="1339" type="line" smooth="yes"/>
      <point x="1458" y="1357"/>
      <point x="1467" y="1366"/>
      <point x="1471" y="1378" type="curve" smooth="yes"/>
      <point x="1477" y="1392"/>
      <point x="1467" y="1400"/>
    </contour>
  </outline>
</glyph>
<glyph name="dieresis.cap" format="2">
  <advance width="573"/>
  <anchor x="315" y="949" name="center"/>
  <outline>
    <contour>
      <point x="125" y="1059" type="curve" smooth="yes"/>
      <point x="164" y="1059"/>
      <point x="199" y="1091"/>
      <point x="210" y="1129" type="curve" smooth="yes"/>
      <point x="220" y="1168"/>
      <point x="202" y="1199"/>
      <point x="164" y="1199" type="curve" smooth="yes"/>
      <point x="124" y="1199"/>
      <point x="89" y="1168"/>
      <point x="78" y="1129" type="curve" smooth="yes"/>
      <point x="68" y="1091"/>
      <point x="86" y="1059"/>
    </contour>
    <contour>
      <point x="448" y="1059" type="curve" smooth="yes"/>
      <point x="487" y="1059"/>
      <point x="523" y="1091"/>
      <point x="533" y="1129" type="curve" smooth="yes"/>
      <point x="544" y="1168"/>
      <point x="526" y="1199"/>
      <point x="487" y="1199" type="curve" smooth="yes"/>
      <point x="448" y="1199"/>
      <point x="412" y="1168"/>
      <point x="402" y="1129" type="curve" smooth="yes"/>
      <point x="391" y="1091"/>
      <point x="409" y="1059"/>
    </contour>
  </outline>
</glyph>
<glyph name="invertedbreve.cap" format="2">
  <advance width="525"/>
  <anchor x="269" y="996" name="center"/>
  <outline>
    <contour>
      <point x="307" y="1210" type="curve" smooth="yes"/>
      <point x="395" y="1210"/>
      <point x="441" y="1164"/>
      <point x="442" y="1053" type="curve" smooth="yes"/>
      <point x="443" y="1041"/>
      <point x="447" y="1038"/>
      <point x="453" y="1038" type="curve" smooth="yes"/>
      <point x="459" y="1038"/>
      <point x="468" y="1043"/>
      <point x="471" y="1055" type="curve" smooth="yes"/>
      <point x="500" y="1186"/>
      <point x="447" y="1278"/>
      <point x="326" y="1278" type="curve" smooth="yes"/>
      <point x="205" y="1278"/>
      <point x="103" y="1186"/>
      <point x="63" y="1055" type="curve" smooth="yes"/>
      <point x="60" y="1043"/>
      <point x="65" y="1038"/>
      <point x="72" y="1038" type="curve" smooth="yes"/>
      <point x="78" y="1038"/>
      <point x="84" y="1041"/>
      <point x="90" y="1053" type="curve" smooth="yes"/>
      <point x="149" y="1164"/>
      <point x="220" y="1210"/>
    </contour>
  </outline>
</glyph>
<glyph name="k.alt" format="2">
  <advance width="1026"/>
  <anchor x="390" y="980" name="center"/>
  <outline>
    <contour>
      <point x="433" y="1224" type="line" smooth="yes"/>
      <point x="466" y="1340"/>
      <point x="451.0" y="1381.0"/>
      <point x="409" y="1381" type="curve" smooth="yes"/>
      <point x="383" y="1381"/>
      <point x="353" y="1365"/>
      <point x="309" y="1320" type="curve" smooth="yes"/>
      <point x="293" y="1304"/>
      <point x="283" y="1298"/>
      <point x="274" y="1302" type="curve" smooth="yes"/>
      <point x="265" y="1306"/>
      <point x="268" y="1318"/>
      <point x="275" y="1331" type="curve" smooth="yes"/>
      <point x="312" y="1395"/>
      <point x="379" y="1434"/>
      <point x="440" y="1434" type="curve" smooth="yes"/>
      <point x="513.0" y="1434.0"/>
      <point x="543" y="1371"/>
      <point x="505" y="1234" type="curve" smooth="yes"/>
      <point x="298" y="494" type="line"/>
      <point x="271" y="485" type="line"/>
      <point x="378" y="723"/>
      <point x="595" y="929"/>
      <point x="802" y="914" type="curve" smooth="yes"/>
      <point x="910" y="905"/>
      <point x="970" y="845"/>
      <point x="959" y="748" type="curve" smooth="yes"/>
      <point x="942" y="590"/>
      <point x="706" y="425"/>
      <point x="221" y="318" type="curve"/>
      <point x="225" y="355" type="line"/>
      <point x="691" y="460"/>
      <point x="863" y="600"/>
      <point x="886" y="749" type="curve" smooth="yes"/>
      <point x="896" y="818"/>
      <point x="865" y="862"/>
      <point x="789" y="871" type="curve" smooth="yes"/>
      <point x="615" y="892"/>
      <point x="331" y="646"/>
      <point x="253" y="352" type="curve" smooth="yes"/>
      <point x="202" y="161"/>
      <point x="199" y="137"/>
      <point x="199" y="106" type="curve" smooth="yes"/>
      <point x="199" y="76"/>
      <point x="205" y="67"/>
      <point x="205" y="40" type="curve" smooth="yes"/>
      <point x="205" y="10"/>
      <point x="173" y="-11"/>
      <point x="137" y="-11" type="curve" smooth="yes"/>
      <point x="102" y="-11"/>
      <point x="93" y="26"/>
      <point x="109" y="82" type="curve" smooth="yes"/>
    </contour>
    <contour>
      <point x="502" y="403" type="line"/>
      <point x="569" y="427" type="line"/>
      <point x="670" y="151" type="line" smooth="yes"/>
      <point x="699" y="70"/>
      <point x="720" y="43"/>
      <point x="752" y="38" type="curve" smooth="yes"/>
      <point x="787" y="33"/>
      <point x="809" y="63"/>
      <point x="825" y="93" type="curve" smooth="yes"/>
      <point x="838" y="118"/>
      <point x="845" y="122"/>
      <point x="854" y="121" type="curve" smooth="yes"/>
      <point x="863" y="120"/>
      <point x="867" y="110"/>
      <point x="863" y="93" type="curve" smooth="yes"/>
      <point x="844" y="21"/>
      <point x="801" y="-20"/>
      <point x="733" y="-15" type="curve" smooth="yes"/>
      <point x="674" y="-10"/>
      <point x="643" y="23"/>
      <point x="608" y="117" type="curve" smooth="yes"/>
    </contour>
  </outline>
</glyph>
<glyph name="l.alt" format="2">
  <advance width="549"/>
  <anchor x="512" y="1098" name="right"/>
  <outline>
    <contour>
      <point x="510" y="1234" type="line" smooth="yes"/>
      <point x="552" y="1370"/>
      <point x="518" y="1434.0"/>
      <point x="447" y="1434" type="curve" smooth="yes"/>
      <point x="386" y="1434"/>
      <point x="319" y="1395"/>
      <point x="282" y="1331" type="curve" smooth="yes"/>
      <point x="275" y="1318"/>
      <point x="272" y="1306"/>
      <point x="281" y="1302" type="curve" smooth="yes"/>
      <point x="290" y="1298"/>
      <point x="300" y="1304"/>
      <point x="316" y="1320" type="curve" smooth="yes"/>
      <point x="360" y="1365"/>
      <point x="390" y="1381"/>
      <point x="416" y="1381" type="curve" smooth="yes"/>
      <point x="458" y="1381"/>
      <point x="476" y="1340"/>
      <point x="440" y="1224" type="curve" smooth="yes"/>
      <point x="123" y="206" type="line" smooth="yes"/>
      <point x="71" y="40"/>
      <point x="102" y="-15"/>
      <point x="189" y="-15" type="curve" smooth="yes"/>
      <point x="298" y="-15"/>
      <point x="421" y="59"/>
      <point x="440" y="133" type="curve" smooth="yes"/>
      <point x="444" y="148"/>
      <point x="438" y="157"/>
      <point x="428" y="157" type="curve" smooth="yes"/>
      <point x="420" y="157"/>
      <point x="414" y="152"/>
      <point x="407" y="142" type="curve" smooth="yes"/>
      <point x="360" y="78"/>
      <point x="290" y="43"/>
      <point x="231" y="43" type="curve" smooth="yes"/>
      <point x="171" y="43"/>
      <point x="152" y="78"/>
      <point x="198" y="227" type="curve" smooth="yes"/>
    </contour>
  </outline>
</glyph>
<glyph name="v.alt" format="2">
  <advance width="891"/>
  <outline>
    <contour>
      <point x="226" y="80" type="curve" smooth="yes"/>
      <point x="226.0" y="174.26680393326535"/>
      <point x="293.96982023781504" y="591.0704633247034"/>
      <point x="299" y="746" type="curve" smooth="yes"/>
      <point x="301" y="819"/>
      <point x="281.0" y="867.0"/>
      <point x="236" y="867" type="curve"/>
      <point x="202.89473684210526" y="867.0"/>
      <point x="177.62671386361043" y="846.7634896732096"/>
      <point x="162" y="795" type="curve" smooth="yes"/>
      <point x="154.59114933362105" y="770.6566335247549"/>
      <point x="146.6153846153846" y="762.0"/>
      <point x="137" y="762" type="curve"/>
      <point x="127.35714285714286" y="762.0"/>
      <point x="122.0" y="770.0"/>
      <point x="122" y="783" type="curve" smooth="yes"/>
      <point x="122" y="830"/>
      <point x="162.0" y="914.0"/>
      <point x="249" y="914.0" type="curve" smooth="yes"/>
      <point x="339" y="914"/>
      <point x="372" y="850"/>
      <point x="366" y="724" type="curve" smooth="yes"/>
      <point x="360.9671152440582" y="610.2568045157162"/>
      <point x="301.0" y="200.57331136738054"/>
      <point x="301" y="113" type="curve" smooth="yes"/>
      <point x="301.0" y="63.95652173913043"/>
      <point x="316.0" y="41.0"/>
      <point x="348" y="41.0" type="curve" smooth="yes"/>
      <point x="463.4604651162791" y="41.0"/>
      <point x="776" y="428"/>
      <point x="776" y="724" type="curve" smooth="yes"/>
      <point x="776.0" y="756.0"/>
      <point x="771.0" y="769.0"/>
      <point x="739" y="794" type="curve" smooth="yes"/>
      <point x="716" y="812"/>
      <point x="702" y="835"/>
      <point x="702" y="862" type="curve" smooth="yes"/>
      <point x="702" y="890"/>
      <point x="725" y="914"/>
      <point x="757" y="914.0" type="curve" smooth="yes"/>
      <point x="798" y="914.0"/>
      <point x="831.0" y="878.0"/>
      <point x="831" y="796" type="curve" smooth="yes"/>
      <point x="831.0" y="397.0"/>
      <point x="485" y="-16.0"/>
      <point x="310" y="-16" type="curve" smooth="yes"/>
      <point x="257" y="-16"/>
      <point x="226" y="16"/>
    </contour>
  </outline>
</glyph>
